 <svg  version="1.0" xmlns="http://www.w3.org/2000/svg"  width="300.000000pt" height="300.000000pt" viewBox="0 0 300.000000 300.000000"  preserveAspectRatio="xMidYMid meet">  <g transform="translate(0.000000,300.000000) scale(0.050000,-0.050000)" fill="#03d069" stroke="none"> <path d="M560 3150 l0 -510 90 0 c67 0 90 8 90 30 0 38 5 38 95 -10 220 -118 511 44 551 308 51 326 -272 577 -556 432 -43 -22 -81 -40 -84 -40 -3 0 -6 68 -6 150 l0 150 -90 0 -90 0 0 -510z m564 77 c208 -186 4 -526 -252 -419 -173 72 -177 367 -6 444 79 35 204 23 258 -25z"/> <path d="M1763 3398 c-195 -99 -269 -377 -157 -591 84 -162 333 -234 504 -147 94 48 90 47 90 10 0 -22 23 -30 90 -30 l90 0 0 390 0 390 -90 0 c-67 0 -90 -8 -90 -30 0 -39 -18 -38 -65 4 -61 56 -265 58 -372 4z m332 -158 c163 -99 133 -381 -46 -440 -165 -55 -309 49 -309 224 0 211 182 321 355 216z"/> <path d="M3890 3400 c-94 -48 -90 -47 -90 -10 0 22 -23 30 -90 30 l-90 0 0 -390 0 -390 90 0 90 0 0 231 c0 314 47 399 219 393 135 -5 161 -64 161 -365 l0 -259 90 0 90 0 0 291 c0 331 -20 405 -124 468 -87 54 -242 54 -346 1z"/> <path d="M4802 3414 c-244 -78 -321 -448 -129 -618 120 -107 368 -130 492 -45 81 55 90 44 48 -58 -66 -157 -234 -187 -477 -84 -36 15 -108 -113 -85 -151 47 -75 418 -96 543 -31 177 92 213 194 222 628 l8 365 -92 0 c-68 0 -92 -8 -92 -30 0 -38 -5 -38 -95 10 -82 44 -230 50 -343 14z m271 -134 c50 0 146 -104 158 -169 49 -259 -362 -382 -463 -139 -69 164 75 352 242 317 22 -5 51 -9 63 -9z"/> <path d="M2623 3121 c6 -264 12 -305 48 -353 104 -140 283 -186 426 -112 68 36 81 37 91 12 8 -22 35 -29 95 -24 l83 6 -1 380 -1 380 -87 0 -87 0 -10 -250 c-13 -318 -35 -360 -187 -360 -148 0 -193 96 -193 415 l0 205 -92 0 -92 0 7 -299z"/> </g> </svg> 